<svg xmlns="http://www.w3.org/2000/svg" width="640" height="480" viewBox="0 0 640 480">
  <rect width="640" height="480" fill="#f5f5f5"/>
  <rect x="40" y="40" width="560" height="400" fill="#fff" stroke="#333" stroke-width="3" rx="8"/>
  <text x="320" y="90" text-anchor="middle" font-family="Arial,sans-serif" font-size="22" font-weight="700" fill="#131A22">OUTBOUND SHIPPING LABEL</text>
  <text x="80" y="130" font-family="monospace" font-size="16" fill="#333">Order: ORD-001</text>
  <text x="80" y="160" font-family="monospace" font-size="16" fill="#333">Ship to: Priya S., Koramangala</text>
  <text x="80" y="190" font-family="monospace" font-size="16" fill="#333">Item: Bose QC Headphones (Grade B)</text>
  <rect x="80" y="220" width="480" height="70" fill="#F0FBFC" stroke="#007185" stroke-width="2" rx="6"/>
  <text x="100" y="252" font-family="monospace" font-size="14" fill="#565959">SERIAL NUMBER</text>
  <text x="100" y="282" font-family="monospace" font-size="26" font-weight="700" fill="#131A22">SN-984A-B72C-11</text>
  <rect x="80" y="310" width="400" height="50" fill="#eee"/>
  <rect x="85" y="315" width="4" height="40" fill="#131A22"/>
  <rect x="95" y="315" width="2" height="40" fill="#131A22"/>
  <rect x="105" y="315" width="6" height="40" fill="#131A22"/>
  <rect x="120" y="315" width="3" height="40" fill="#131A22"/>
  <rect x="130" y="315" width="5" height="40" fill="#131A22"/>
  <rect x="145" y="315" width="2" height="40" fill="#131A22"/>
  <rect x="155" y="315" width="4" height="40" fill="#131A22"/>
  <rect x="170" y="315" width="6" height="40" fill="#131A22"/>
  <rect x="185" y="315" width="2" height="40" fill="#131A22"/>
  <rect x="195" y="315" width="5" height="40" fill="#131A22"/>
  <text x="500" y="340" font-family="monospace" font-size="12" fill="#666">SCAN</text>
  <text x="80" y="400" font-family="Arial,sans-serif" font-size="13" fill="#879596">SecondLife Commerce · Demo verification label</text>
</svg>
